# AST/ASF file generated using VICON BodyLanguage
# -----------------------------------------------
:version 1.10
:name VICON
:units
  mass 1.0
  length 0.45
  angle deg
:documentation
   .ast/.asf automatically generated from VICON data using
   VICON BodyBuilder and BodyLanguage model FoxedUp or BRILLIANT.MOD
:root
   order TX TY TZ RX RY RZ
   axis XYZ
   position 0 0 0  
   orientation 0 0 0 
:bonedata
  begin
     id 1 
     name lhipjoint
     direction 0.693937 -0.600361 0.397515 
     length 2.37164 
     axis 0 0 0  XYZ
  end
  begin
     id 2 
     name lfemur
     direction 0.34202 -0.939693 0  
     length 6.18497  
     axis 0 0 20  XYZ
    dof rx ry rz
    limits (-160.0 20.0)
           (-70.0 70.0)
           (-60.0 70.0)
  end
  begin
     id 3 
     name ltibia
     direction 0.34202 -0.939693 0   
     length 6.91601   
     axis 0 0 20   XYZ
    dof rx
    limits (-10.0 170.0)
  end
  begin
     id 4 
     name lfoot
     direction 0.0978718 -0.2689 0.958182   
     length 1.81453   
     axis -90 7.62852e-016 20   XYZ
    dof rx rz
    limits (-45.0 90.0)
           (-70.0 20.0)
  end
  begin
     id 5 
     name ltoes
     direction 1.53569e-011 -4.21951e-011 1   
     length 0.912052   
     axis -90 7.62852e-016 20   XYZ
    dof rx
    limits (-90.0 20.0)
  end
  begin
     id 6 
     name rhipjoint
     direction -0.643996 -0.637876 0.422354   
     length 2.23216  
     axis 0 0 0  XYZ 
  end
  begin
     id 7 
     name rfemur
     direction -0.34202 -0.939693 0   
     length 6.15404   
     axis 0 0 -20   XYZ
    dof rx ry rz
    limits (-160.0 20.0)
           (-70.0 70.0)
           (-70.0 60.0)
  end
  begin
     id 8 
     name rtibia
     direction -0.34202 -0.939693 0   
     length 6.86744   
     axis 0 0 -20   XYZ
    dof rx
    limits (-10.0 170.0)
 end
 begin
     id 9 
     name rfoot
     direction -0.118701 -0.326127 0.937844   
     length 1.9243  
     axis -90 -7.62852e-016 -20   XYZ
    dof rx rz
    limits (-45.0 90.0)
           (-20.0 70.0)
  end
  begin
     id 10 
     name rtoes
     direction -1.5356e-011 -4.2181e-011 1   
     length 0.958865   
     axis -90 -7.62852e-016 -20   XYZ
    dof rx
    limits (-90.0 20.0)
  end
  begin
     id 11 
     name lowerback
     direction 0.0310826 0.968686 -0.246334   
     length 2.00021   
     axis 0 0 0   XYZ
    dof rx ry rz
    limits (-20.0 45.0)
           (-30.0 30.0)
           (-30.0 30.0)
  end
  begin
     id 12 
     name upperback
     direction -0.0152834 0.999474 -0.0286152   
     length 2.03728   
     axis 0 0 0   XYZ
    dof rx ry rz
    limits (-20.0 45.0)
           (-30.0 30.0)
           (-30.0 30.0)
  end
  begin
     id 13 
     name thorax
     direction -0.0323701 0.996236 0.0804149   
     length 2.16   
     axis 0 0 0   XYZ
    dof rx ry rz
    limits (-20.0 45.0)
           (-30.0 30.0)
           (-30.0 30.0)
  end
  begin
     id 14 
     name lowerneck
     direction 0.0307935 0.982251 0.185027   
     length 1.43558   
     axis 0 0 0   XYZ
    dof rx ry rz
    limits (-20.0 45.0)
           (-30.0 30.0)
           (-30.0 30.0)
  end
  begin
     id 15 
     name upperneck
     direction -0.0927153 0.994775 0.0427454   
     length 1.44603   
     axis 0 0 0   XYZ
    dof rx ry rz
    limits (-20.0 45.0)
           (-30.0 30.0)
           (-30.0 30.0)
  end
  begin
     id 16
     name head
     direction -0.0341265 0.999406 -0.00472033  
     length 1.45931  
     axis 0 0 0   XYZ
    dof rx ry rz
    limits (-20.0 45.0)
           (-30.0 30.0)
           (-30.0 30.0)
  end
  begin
     id 17 
     name lclavicle
     direction 0.820755 0.555306 -0.134151  
     length 2.66075  
     axis 0 0 0   XYZ
    dof ry rz
    limits (-20.0 10.0)
           (0.0 20.0)
  end
  begin
     id 18 
     name lhumerus
     direction 1 -4.48971e-011 5.24853e-027   
     length 5.0546   
     axis -180 -30 -90   XYZ
    dof rx ry rz
    limits (-60.0 90.0)
           (-90.0 90.0)
           (-90.0 90.0)
  end
  begin
     id 19
     name lradius
     direction 1 -4.48971e-011 2.76575e-028   
     length 3.39013   
     axis -180 -30 -90   XYZ
    dof rx
    limits (-10.0 170.0)
  end
  begin
     id 20
     name lwrist
     direction 1 -4.48939e-011 -2.27826e-027   
     length 1.69507   
     axis 2.17013e-015 90 90   XYZ
    dof ry
    limits (-180.0 0.0)
 end
  begin
     id 21 
     name lhand
     direction 1 -4.49009e-011 -4.55652e-027   
     length 0.572425   
     axis 2.90745e-015 90 90   XYZ
    dof rx rz
    limits (-90.0 90.0)
           (-45.0 45.0)
  end
  begin
     id 22 
     name lfingers
     direction 1 -4.48955e-011 -9.11303e-027   
     length 0.461504   
     axis 5.81489e-015 90 90   XYZ
    dof rx
    limits (0.0 90.0)
  end
  begin
     id 23
     name lthumb
     direction 0.707107 -6.34929e-011 0.707107   
     length 0.66263   
     axis -90 45 2.85299e-015   XYZ
    dof rx rz
    limits (-45.0 45.0)
           (-45.0 45.0)
  end
  begin
     id 24 
     name rclavicle
     direction -0.754477 0.632921 -0.173712   
     length 2.73081  
     axis 0 0 0   XYZ 
    dof ry rz
    limits (-10.0 20.0)
           (-20.0 0.0)
  end
  begin
     id 25 
     name rhumerus
     direction -1 -4.48969e-011 5.1496e-027  
     length 5.0701   
     axis -180 30 90   XYZ
    dof rx ry rz
    limits (-90.0 60.0)
           (-90.0 90.0)
           (-90.0 90.0)
  end
  begin
     id 26 
     name rradius
     direction -1 -4.48967e-011 -7.15624e-028   
     length 3.14957   
     axis -180 30 90   XYZ
    dof rx
    limits (-10.0 170.0)
  end
  begin
     id 27 
     name rwrist
     direction -1 -4.48938e-011 -2.27826e-027   
     length 1.57479   
     axis 2.17013e-015 -90 -90   XYZ
    dof ry
    limits (-180.0 0.0)
  end
  begin
     id 28
     name rhand
     direction -1 -4.49008e-011 -4.55652e-027   
     length 0.718191   
     axis 2.90745e-015 -90 -90   XYZ
    dof rx rz
    limits (-90.0 90.0)
           (-45.0 45.0)
  end
  begin
     id 29
     name rfingers
     direction -1 -4.48953e-011 -9.11303e-027   
     length 0.579024   
     axis 5.81489e-015 -90 -90   XYZ
    dof rx
    limits (0.0 90.0)
  end
  begin
     id 30
     name rthumb
     direction -0.707107 -6.34937e-011 0.707107   
     length 0.831366   
     axis -90 -45 -2.85299e-015   XYZ
    dof rx rz
    limits (-45.0 45.0)
           (-45.0 45.0)
  end
:hierarchy
  begin
    root lhipjoint rhipjoint lowerback
    lhipjoint lfemur
    lfemur ltibia
    ltibia lfoot
    lfoot ltoes
    rhipjoint rfemur
    rfemur rtibia
    rtibia rfoot
    rfoot rtoes
    lowerback upperback
    upperback thorax
    thorax lowerneck lclavicle rclavicle
    lowerneck upperneck
    upperneck head
    lclavicle lhumerus
    lhumerus lradius
    lradius lwrist
    lwrist lhand lthumb
    lhand lfingers
    rclavicle rhumerus
    rhumerus rradius
    rradius rwrist
    rwrist rhand rthumb
    rhand rfingers
  end

#!OML:ASF H:\Male1\Project 1\Capture day 1\Session 1\Male1.ASF
:FULLY-SPECIFIED
:DEGREES
95
root 18.3159 14.8753 1.79161 174.493 -91.8438 -176.658
lowerback 7.65035 2.27018 -4.93235
upperback 4.75623 2.48662 -3.29435
thorax 0.574957 1.0935 -0.814234
lowerneck -9.6983 -0.254816 4.19005
upperneck 9.15519 -1.45823 4.05175
head 4.34271 -0.3648 0.470466
rclavicle -2.18663e-015 1.43125e-014
rhumerus -34.8044 11.819 -93.2209
rradius 43.1177
rwrist -19.1604
rhand -22.4334 8.00232
rfingers 7.12502
rthumb 3.9903 -21.9401
lclavicle -2.18663e-015 1.43125e-014
lhumerus -30.3928 -7.24351 81.0209
lradius 30.931
lwrist 2.67428
lhand -16.8746 13.0197
lfingers 7.12502
lthumb 9.35638 42.7921
rfemur -31.1265 0.298285 22.1044
rtibia 59.4717
rfoot -23.0481 -21.4054
rtoes -25.2529
lfemur -6.82165 -16.8052 -27.0683
ltibia 37.9241
lfoot -32.9737 21.5654
ltoes 1.0326
96
root 18.2301 14.8791 1.79262 171.236 -92.113 -173.297
lowerback 7.80379 2.22918 -5.03559
upperback 4.76131 2.4102 -3.35236
thorax 0.496095 1.05371 -0.816712
lowerneck -9.83525 -0.294732 4.0618
upperneck 9.20209 -1.53429 4.29666
head 4.38327 -0.3902 0.56114
rclavicle -4.96962e-015 -1.43125e-014
rhumerus -35.0378 11.9125 -93.2119
rradius 43.5261
rwrist -19.3517
rhand -22.5962 7.99232
rfingers 7.12502
rthumb 3.83301 -21.953
lclavicle -4.96962e-015 -1.43125e-014
lhumerus -30.1471 -7.49033 80.7786
lradius 31.4816
lwrist 3.3411
lhand -17.0224 12.9097
lfingers 7.12502
lthumb 9.21371 42.6884
rfemur -31.9094 0.467218 22.217
rtibia 58.3591
rfoot -22.8945 -21.6313
rtoes -24.908
lfemur -6.33693 -16.8682 -27.2961
ltibia 37.4878
lfoot -32.978 21.6342
ltoes 0.912539
97
root 18.1381 14.8779 1.79184 167.535 -92.3331 -169.522
lowerback 7.86338 2.22342 -5.20422
upperback 4.8032 2.38493 -3.38919
thorax 0.502975 1.03577 -0.760799
lowerneck -9.68406 -0.41354 4.03832
upperneck 8.99277 -1.67832 4.36936
head 4.29501 -0.466284 0.578151
rclavicle 1.09332e-014 -2.8625e-014
rhumerus -35.2553 11.8912 -93.1337
rradius 43.8938
rwrist -19.378
rhand -22.8581 8.15674
rfingers 7.12502
rthumb 3.58017 -21.7929
lclavicle 1.09332e-014 -2.8625e-014
lhumerus -29.8526 -7.6609 80.5422
lradius 32.0401
lwrist 4.09859
lhand -17.0231 12.9684
lfingers 7.12502
lthumb 9.21302 42.7472
rfemur -32.613 0.746818 22.2333
rtibia 57.0995
rfoot -22.8172 -21.9038
rtoes -24.3003
lfemur -5.69732 -16.8767 -27.6029
ltibia 37.0143
lfoot -32.9886 21.9353
ltoes -0.916429
98
root 18.0433 14.8751 1.78885 165.053 -92.317 -166.982
lowerback 7.92051 2.27523 -5.27373
upperback 4.8458 2.44238 -3.42585
thorax 0.513544 1.06103 -0.766027
lowerneck -9.53985 -0.530704 3.8186
upperneck 8.42978 -1.80172 4.5963
head 4.54649 -0.545446 0.750988
rclavicle 6.75868e-015 -7.95139e-015
rhumerus -35.381 11.869 -93.0559
rradius 44.1612
rwrist -19.3357
rhand -23.0992 8.30974
rfingers 7.12502
rthumb 3.34727 -21.6437
lclavicle 6.75868e-015 -7.95139e-015
lhumerus -29.5513 -7.86683 80.2494
lradius 32.7121
lwrist 4.96607
lhand -17.0439 13.5761
lfingers 7.12502
lthumb 9.193 43.3557
rfemur -33.2749 1.32619 22.3197
rtibia 55.7219
rfoot -23.0796 -22.3325
rtoes -23.68
lfemur -5.029 -16.7244 -27.7886
ltibia 36.4902
lfoot -33.0601 22.1797
ltoes -2.73407
99
root 17.9446 14.8705 1.78594 164.476 -92.18 -166.298
lowerback 7.94519 2.33548 -5.12479
upperback 4.88998 2.52844 -3.49491
thorax 0.552698 1.10542 -0.926924
lowerneck -9.50674 -0.610322 3.49662
upperneck 8.20245 -1.9122 5.14783
head 4.46991 -0.591371 0.98782
rclavicle 1.55052e-014 -6.36111e-015
rhumerus -35.4077 11.8656 -93.0329
rradius 44.3516
rwrist -19.3879
rhand -23.3302 8.60978
rfingers 7.12502
rthumb 3.12423 -21.3471
lclavicle 1.55052e-014 -6.36111e-015
lhumerus -29.1845 -8.22972 79.9297
lradius 33.4524
lwrist 5.76347
lhand -17.1499 13.7303
lfingers 7.12502
lthumb 9.0907 43.5144
rfemur -33.9045 2.06372 22.4681
rtibia 54.2475
rfoot -23.3734 -22.7027
rtoes -23.7031
lfemur -4.43433 -16.4183 -27.7892
ltibia 35.9352
lfoot -33.2248 21.9201
ltoes -2.38923
100
root 17.8402 14.8612 1.78216 160.174 -92.2556 -161.933
lowerback 8.01286 2.3574 -5.134
upperback 4.97085 2.54822 -3.59638
thorax 0.603632 1.11173 -1.02957
lowerneck -10.0754 -0.513422 3.74199
upperneck 8.77293 -1.87888 5.18146
head 4.30548 -0.532902 0.861202
rclavicle 8.74653e-015 1.59028e-014
rhumerus -35.3666 11.897 -92.9935
rradius 44.5216
rwrist -19.5907
rhand -23.5729 8.94469
rfingers 7.12502
rthumb 2.88979 -21.0155
lclavicle 8.74653e-015 1.59028e-014
lhumerus -28.7907 -8.64066 79.6676
lradius 34.2109
lwrist 6.46326
lhand -17.1891 13.254
lfingers 7.12502
lthumb 9.05283 43.0398
rfemur -34.4207 2.66114 22.3145
rtibia 52.7407
rfoot -23.3999 -22.8628
rtoes -24.1951
lfemur -3.74731 -16.1274 -28.0069
ltibia 35.3866
lfoot -33.2443 21.6834
ltoes -3.0556
